<svg width="266" height="105" viewBox="0 0 266 105" fill="none" xmlns="http://www.w3.org/2000/svg">
<path d="M47.4631 104.38C44.6584 104.38 41.9617 103.637 39.4807 102.256L7.98243 84.3076C3.02037 81.5463 0 76.3423 0 70.7135V34.9222C0 29.2935 3.02037 24.0894 7.98243 21.3281L39.4807 3.37934C44.4427 0.618019 50.4835 0.618019 55.4455 3.37934L86.9437 21.3281C91.9057 24.0894 94.9261 29.2935 94.9261 34.9222V70.7135C94.9261 76.3423 91.9057 81.5463 86.9437 84.3076L55.4455 102.256C52.9645 103.637 50.2678 104.38 47.4631 104.38ZM47.4631 3.06074C45.5215 3.06074 43.5797 3.59175 41.746 4.54761L7.87455 23.8769C4.4227 25.8948 2.15742 29.6119 2.15742 33.5415V72.094C2.15742 76.1298 4.31483 79.7409 7.87455 81.7588L41.746 100.982C45.1978 103 49.6204 103 53.0722 100.982L86.9437 81.7588C90.3956 79.7409 92.6608 76.0236 92.6608 72.094V33.5415C92.6608 29.5057 90.5035 25.8948 86.9437 23.8769L53.1802 4.54761C51.4543 3.59175 49.4047 3.06074 47.4631 3.06074Z" fill="#FEC882"/>
<path d="M138.102 47.8502H132.157L122.215 32.9315V47.8502H116.271V23.5471H122.215L132.157 38.6032V23.5471H138.102V47.8502Z" fill="#FFFAF3"/>
<path d="M149.576 28.4285C151.06 28.4285 152.334 28.7608 153.4 29.4253C154.466 30.0898 155.254 30.9952 155.764 32.141V28.6691H161.674V47.8504H155.764V44.3785C155.254 45.5243 154.466 46.4295 153.4 47.0942C152.334 47.7587 151.06 48.091 149.576 48.091C147.977 48.091 146.541 47.7015 145.266 46.9221C144.014 46.12 143.018 44.9743 142.276 43.4848C141.558 41.9951 141.199 40.2534 141.199 38.2596C141.199 36.243 141.558 34.5013 142.276 33.0347C143.018 31.545 144.014 30.4108 145.266 29.6315C146.541 28.8294 147.977 28.4285 149.576 28.4285ZM151.488 33.5846C150.214 33.5846 149.182 33.9971 148.394 34.8223C147.63 35.6473 147.247 36.7931 147.247 38.2596C147.247 39.7264 147.63 40.8722 148.394 41.6972C149.182 42.5222 150.214 42.9347 151.488 42.9347C152.74 42.9347 153.76 42.5108 154.547 41.6629C155.359 40.815 155.764 39.6806 155.764 38.2596C155.764 36.816 155.359 35.6816 154.547 34.8566C153.76 34.0087 152.74 33.5846 151.488 33.5846Z" fill="#FFFAF3"/>
<path d="M176.751 42.7971V47.8503H174.075C171.803 47.8503 170.03 47.3003 168.756 46.2003C167.504 45.0773 166.879 43.2325 166.879 40.666V33.619H164.271V28.6691H166.879V23.9597H172.823V28.6691H176.716V33.619H172.823V40.7691C172.823 41.5253 172.974 42.0524 173.275 42.3503C173.6 42.6482 174.133 42.7971 174.874 42.7971H176.751Z" fill="#FFFAF3"/>
<path d="M179.537 23.2719C179.537 22.3782 179.862 21.6449 180.51 21.0721C181.159 20.4761 182.017 20.1782 183.083 20.1782C184.149 20.1782 185.006 20.4761 185.655 21.0721C186.304 21.6449 186.629 22.3782 186.629 23.2719C186.629 24.1428 186.304 24.8761 185.655 25.472C185.006 26.045 184.149 26.3313 183.083 26.3313C182.017 26.3313 181.159 26.045 180.51 25.472C179.862 24.8761 179.537 24.1428 179.537 23.2719ZM186.038 28.6689V47.8502H180.093V28.6689H186.038Z" fill="#FFFAF3"/>
<path d="M199.215 28.4285C201.138 28.4285 202.853 28.8294 204.359 29.6315C205.889 30.4108 207.082 31.545 207.94 33.0347C208.821 34.5242 209.261 36.2659 209.261 38.2596C209.261 40.2534 208.821 41.9951 207.94 43.4848C207.082 44.9743 205.889 46.12 204.359 46.9221C202.853 47.7015 201.138 48.091 199.215 48.091C197.291 48.091 195.564 47.7015 194.035 46.9221C192.505 46.12 191.3 44.9743 190.419 43.4848C189.562 41.9951 189.133 40.2534 189.133 38.2596C189.133 36.2659 189.562 34.5242 190.419 33.0347C191.3 31.545 192.505 30.4108 194.035 29.6315C195.564 28.8294 197.291 28.4285 199.215 28.4285ZM199.215 33.516C198.079 33.516 197.117 33.9285 196.329 34.7535C195.564 35.5556 195.182 36.7243 195.182 38.2596C195.182 39.7952 195.564 40.9639 196.329 41.766C197.117 42.5681 198.079 42.969 199.215 42.969C200.35 42.969 201.3 42.5681 202.065 41.766C202.83 40.9639 203.212 39.7952 203.212 38.2596C203.212 36.7243 202.83 35.5556 202.065 34.7535C201.3 33.9285 200.35 33.516 199.215 33.516Z" fill="#FFFAF3"/>
<path d="M224.649 28.4626C226.874 28.4626 228.637 29.1961 229.934 30.6627C231.256 32.1293 231.916 34.1461 231.916 36.7126V47.8503H225.971V37.4003C225.971 36.1169 225.624 35.1201 224.928 34.4095C224.255 33.6762 223.353 33.3096 222.216 33.3096C221.012 33.3096 220.05 33.6878 219.331 34.444C218.636 35.2002 218.288 36.2774 218.288 37.6752V47.8503H212.343V28.669H218.288V32.1751C218.844 31.0294 219.667 30.1242 220.757 29.4595C221.868 28.795 223.167 28.4626 224.649 28.4626Z" fill="#FFFAF3"/>
<path d="M243.204 28.4285C244.689 28.4285 245.963 28.7608 247.029 29.4253C248.094 30.0898 248.883 30.9952 249.393 32.141V28.6691H255.302V47.8504H249.393V44.3785C248.883 45.5243 248.094 46.4295 247.029 47.0942C245.963 47.7587 244.689 48.091 243.204 48.091C241.606 48.091 240.168 47.7015 238.894 46.9221C237.642 46.12 236.647 44.9743 235.904 43.4848C235.185 41.9951 234.827 40.2534 234.827 38.2596C234.827 36.243 235.185 34.5013 235.904 33.0347C236.647 31.545 237.642 30.4108 238.894 29.6315C240.168 28.8294 241.606 28.4285 243.204 28.4285ZM245.117 33.5846C243.841 33.5846 242.81 33.9971 242.024 34.8223C241.258 35.6473 240.877 36.7931 240.877 38.2596C240.877 39.7264 241.258 40.8722 242.024 41.6972C242.81 42.5222 243.841 42.9347 245.117 42.9347C246.367 42.9347 247.388 42.5108 248.177 41.6629C248.986 40.815 249.393 39.6806 249.393 38.2596C249.393 36.816 248.986 35.6816 248.177 34.8566C247.388 34.0087 246.367 33.5846 245.117 33.5846Z" fill="#FFFAF3"/>
<path d="M265.338 22.4126V47.8501H259.393V22.4126H265.338Z" fill="#FFFAF3"/>
<path d="M125.137 63.0439C127.616 63.0439 129.667 63.6971 131.29 65.0034C132.912 66.2867 133.92 68.0398 134.314 70.2628H130.108C129.876 69.0711 129.308 68.1431 128.404 67.4784C127.524 66.7909 126.411 66.4472 125.067 66.4472C123.537 66.4472 122.263 66.9857 121.243 68.0627C120.224 69.117 119.714 70.6753 119.714 72.7378C119.714 74.8003 120.224 76.3701 121.243 77.4471C122.263 78.5243 123.537 79.0628 125.067 79.0628C126.411 79.0628 127.524 78.7191 128.404 78.0315C129.308 77.344 129.876 76.4044 130.108 75.2128H134.314C133.92 77.4357 132.912 79.2004 131.29 80.5065C129.667 81.8127 127.616 82.4659 125.137 82.4659C123.283 82.4659 121.637 82.0763 120.2 81.2972C118.787 80.518 117.674 79.3952 116.863 77.9284C116.052 76.4618 115.646 74.7315 115.646 72.7378C115.646 70.767 116.052 69.0482 116.863 67.5814C117.674 66.1149 118.787 64.992 120.2 64.2127C121.637 63.4335 123.283 63.0439 125.137 63.0439Z" fill="#FFFAF3"/>
<path d="M145.824 63.0439C147.563 63.0439 149.046 63.468 150.274 64.3159C151.502 65.1639 152.371 66.2867 152.881 67.6847V63.2846H156.844V82.2252H152.881V77.8253C152.371 79.2231 151.502 80.3462 150.274 81.1941C149.046 82.042 147.563 82.4659 145.824 82.4659C144.156 82.4659 142.661 82.0763 141.34 81.2972C140.042 80.518 139.023 79.3952 138.281 77.9284C137.539 76.4618 137.169 74.7315 137.169 72.7378C137.169 70.767 137.539 69.0482 138.281 67.5814C139.023 66.1149 140.042 64.992 141.34 64.2127C142.661 63.4335 144.156 63.0439 145.824 63.0439ZM147.041 66.4815C145.28 66.4815 143.866 67.0429 142.8 68.1658C141.757 69.2659 141.236 70.7899 141.236 72.7378C141.236 74.6856 141.757 76.2212 142.8 77.344C143.866 78.444 145.28 78.994 147.041 78.994C148.154 78.994 149.15 78.742 150.031 78.2378C150.911 77.7107 151.607 76.9774 152.116 76.0378C152.626 75.0981 152.881 73.9982 152.881 72.7378C152.881 71.5003 152.626 70.4117 152.116 69.4721C151.607 68.5097 150.911 67.7762 150.031 67.2722C149.15 66.7451 148.154 66.4815 147.041 66.4815Z" fill="#FFFAF3"/>
<path d="M167.892 63.0439C170.14 63.0439 171.936 63.6169 173.28 64.7627C174.648 65.8856 175.482 67.3982 175.783 69.3002H172.029C171.866 68.2691 171.415 67.4441 170.673 66.8252C169.955 66.1836 168.993 65.8629 167.788 65.8629C166.791 65.8629 166.015 66.1033 165.459 66.5846C164.926 67.0429 164.659 67.6731 164.659 68.4752C164.659 69.0711 164.856 69.5524 165.25 69.9191C165.644 70.2857 166.131 70.5722 166.71 70.7783C167.313 70.9847 168.158 71.2138 169.248 71.466C170.685 71.7868 171.843 72.1191 172.724 72.4628C173.628 72.8065 174.393 73.3566 175.018 74.1128C175.667 74.8461 175.992 75.8545 175.992 77.1377C175.992 78.7191 175.378 80.0025 174.149 80.9877C172.944 81.9732 171.31 82.4659 169.248 82.4659C166.861 82.4659 164.926 81.9158 163.442 80.8159C161.982 79.716 161.102 78.1804 160.8 76.2096H164.659C164.775 77.241 165.238 78.0773 166.05 78.7191C166.861 79.3607 167.927 79.6815 169.248 79.6815C170.198 79.6815 170.94 79.4408 171.473 78.9597C172.029 78.4555 172.307 77.8253 172.307 77.0691C172.307 76.4044 172.098 75.8773 171.681 75.4877C171.264 75.0981 170.743 74.8003 170.117 74.5941C169.491 74.3648 168.634 74.1358 167.544 73.9065C166.154 73.5857 165.018 73.2649 164.138 72.9441C163.28 72.6231 162.539 72.1076 161.913 71.3972C161.31 70.6637 161.009 69.6784 161.009 68.4409C161.009 66.8368 161.611 65.5419 162.817 64.5566C164.045 63.5482 165.737 63.0439 167.892 63.0439Z" fill="#FFFAF3"/>
<path d="M179.409 57.7843C179.409 57.1198 179.641 56.5698 180.105 56.1343C180.568 55.6989 181.182 55.4812 181.947 55.4812C182.712 55.4812 183.326 55.6989 183.789 56.1343C184.276 56.5698 184.519 57.1198 184.519 57.7843C184.519 58.449 184.276 58.9875 183.789 59.4C183.326 59.8125 182.712 60.0189 181.947 60.0189C181.182 60.0189 180.568 59.8125 180.105 59.4C179.641 58.9875 179.409 58.449 179.409 57.7843ZM183.928 63.2844V82.225H179.966V63.2844H183.928Z" fill="#FFFAF3"/>
<path d="M199.432 62.9751C201.657 62.9751 203.441 63.6857 204.785 65.1064C206.129 66.5273 206.801 68.5555 206.801 71.1908V82.2252H202.839V71.6033C202.839 69.9074 202.398 68.6011 201.517 67.6846C200.637 66.745 199.432 66.2753 197.902 66.2753C196.326 66.2753 195.063 66.7793 194.113 67.7877C193.163 68.7732 192.688 70.2284 192.688 72.1533V82.2252H188.725V63.2845H192.688V67.444C193.198 66.0231 194.055 64.9232 195.26 64.144C196.465 63.3649 197.856 62.9751 199.432 62.9751Z" fill="#FFFAF3"/>
<path d="M220.196 63.0439C222.049 63.0439 223.717 63.4335 225.202 64.2127C226.684 64.992 227.844 66.1149 228.677 67.5814C229.512 69.0482 229.929 70.767 229.929 72.7378C229.929 74.7315 229.512 76.4618 228.677 77.9284C227.844 79.3952 226.684 80.518 225.202 81.2972C223.717 82.0763 222.049 82.4659 220.196 82.4659C218.342 82.4659 216.672 82.0763 215.19 81.2972C213.731 80.518 212.571 79.3952 211.713 77.9284C210.88 76.4389 210.462 74.7085 210.462 72.7378C210.462 70.767 210.88 69.0482 211.713 67.5814C212.571 66.1149 213.731 64.992 215.19 64.2127C216.672 63.4335 218.342 63.0439 220.196 63.0439ZM220.196 66.4472C219.175 66.4472 218.237 66.6763 217.381 67.1346C216.523 67.593 215.827 68.3034 215.293 69.2659C214.785 70.2056 214.53 71.3627 214.53 72.7378C214.53 74.1358 214.785 75.3045 215.293 76.2441C215.827 77.1835 216.523 77.8825 217.381 78.3409C218.237 78.7992 219.175 79.0283 220.196 79.0283C221.214 79.0283 222.155 78.7992 223.011 78.3409C223.869 77.8825 224.552 77.1835 225.062 76.2441C225.596 75.3045 225.862 74.1358 225.862 72.7378C225.862 71.3627 225.596 70.2056 225.062 69.2659C224.552 68.3034 223.869 67.593 223.011 67.1346C222.155 66.6763 221.214 66.4472 220.196 66.4472Z" fill="#FFFAF3"/>
<path fill-rule="evenodd" clip-rule="evenodd" d="M54.4947 13.2235L80.0599 27.7736C83.9434 30.004 86.4244 34.252 86.4244 38.819V67.7067C86.4244 72.2736 83.9434 76.5217 79.9522 78.752L54.4947 93.3022C52.4451 94.4705 50.2878 95.0014 48.0225 95.0014C45.7572 95.0014 43.4919 94.4705 41.5501 93.3022L16.0927 78.8583C12.1015 76.5217 9.62048 72.3799 9.62048 67.8129V38.819C9.62048 34.252 12.1015 30.004 16.0927 27.7736L41.5501 13.2235C45.5415 10.9932 50.5035 10.9932 54.4947 13.2235ZM56.2263 72.8988H66.0368V32.7893H56.2263V57.6378L39.8179 32.7893H30.0073V72.8988H39.8179V48.2772L56.2263 72.8988Z" fill="#FEC882"/>
<path d="M47.4631 103.378C44.6584 103.378 41.9617 102.635 39.4807 101.254L7.98243 83.3052C3.02037 80.5439 0 75.3398 0 69.711V33.9198C0 28.291 3.02037 23.0869 7.98243 20.3257L39.4807 2.3769C44.4427 -0.384423 50.4835 -0.384423 55.4455 2.3769L86.9437 20.3257C91.9057 23.0869 94.9261 28.291 94.9261 33.9198V69.711C94.9261 75.3398 91.9057 80.5439 86.9437 83.3052L55.4455 101.254C52.9645 102.635 50.2678 103.378 47.4631 103.378ZM47.4631 2.0583C45.5215 2.0583 43.5797 2.58931 41.746 3.54517L7.87455 22.8745C4.4227 24.8924 2.15742 28.6095 2.15742 32.5391V71.0916C2.15742 75.1274 4.31483 78.7385 7.87455 80.7564L41.746 99.9793C45.1978 101.997 49.6204 101.997 53.0722 99.9793L86.9437 80.7564C90.3956 78.7385 92.6608 75.0211 92.6608 71.0916V32.5391C92.6608 28.5033 90.5035 24.8924 86.9437 22.8745L53.1802 3.54517C51.4543 2.58931 49.4047 2.0583 47.4631 2.0583Z" fill="#FEC882"/>
<path d="M138.102 46.848H132.157L122.215 31.9293V46.848H116.271V22.5449H122.215L132.157 37.601V22.5449H138.102V46.848Z" fill="#FFFAF3"/>
<path d="M149.576 27.426C151.06 27.426 152.334 27.7584 153.4 28.4229C154.466 29.0874 155.254 29.9927 155.764 31.1385V27.6667H161.674V46.848H155.764V43.3761C155.254 44.5219 154.466 45.427 153.4 46.0917C152.334 46.7562 151.06 47.0886 149.576 47.0886C147.977 47.0886 146.541 46.699 145.266 45.9197C144.014 45.1176 143.018 43.9718 142.276 42.4823C141.558 40.9926 141.199 39.2509 141.199 37.2572C141.199 35.2406 141.558 33.4989 142.276 32.0323C143.018 30.5426 144.014 29.4084 145.266 28.629C146.541 27.827 147.977 27.426 149.576 27.426ZM151.488 32.5821C150.214 32.5821 149.182 32.9946 148.394 33.8199C147.63 34.6449 147.247 35.7906 147.247 37.2572C147.247 38.724 147.63 39.8698 148.394 40.6948C149.182 41.5198 150.214 41.9323 151.488 41.9323C152.74 41.9323 153.76 41.5084 154.547 40.6605C155.359 39.8125 155.764 38.6781 155.764 37.2572C155.764 35.8136 155.359 34.6791 154.547 33.8541C153.76 33.0062 152.74 32.5821 151.488 32.5821Z" fill="#FFFAF3"/>
<path d="M176.751 41.7949V46.8482H174.075C171.803 46.8482 170.03 46.2981 168.756 45.1982C167.504 44.0751 166.879 42.2303 166.879 39.6638V32.6168H164.271V27.6669H166.879V22.9575H172.823V27.6669H176.716V32.6168H172.823V39.7669C172.823 40.5231 172.974 41.0502 173.275 41.3481C173.6 41.646 174.133 41.7949 174.874 41.7949H176.751Z" fill="#FFFAF3"/>
<path d="M179.537 22.27C179.537 21.3762 179.862 20.6429 180.51 20.0701C181.159 19.4742 182.017 19.1763 183.083 19.1763C184.149 19.1763 185.006 19.4742 185.655 20.0701C186.304 20.6429 186.629 21.3762 186.629 22.27C186.629 23.1408 186.304 23.8741 185.655 24.47C185.006 25.043 184.149 25.3293 183.083 25.3293C182.017 25.3293 181.159 25.043 180.51 24.47C179.862 23.8741 179.537 23.1408 179.537 22.27ZM186.038 27.667V46.8483H180.093V27.667H186.038Z" fill="#FFFAF3"/>
<path d="M199.215 27.4258C201.138 27.4258 202.853 27.8267 204.359 28.6288C205.889 29.4081 207.082 30.5423 207.94 32.032C208.821 33.5215 209.261 35.2633 209.261 37.257C209.261 39.2507 208.821 40.9924 207.94 42.4821C207.082 43.9716 205.889 45.1174 204.359 45.9194C202.853 46.6988 201.138 47.0883 199.215 47.0883C197.291 47.0883 195.564 46.6988 194.035 45.9194C192.505 45.1174 191.3 43.9716 190.419 42.4821C189.562 40.9924 189.133 39.2507 189.133 37.257C189.133 35.2633 189.562 33.5215 190.419 32.032C191.3 30.5423 192.505 29.4081 194.035 28.6288C195.564 27.8267 197.291 27.4258 199.215 27.4258ZM199.215 32.5133C198.079 32.5133 197.117 32.9258 196.329 33.7508C195.564 34.5529 195.182 35.7216 195.182 37.257C195.182 38.7925 195.564 39.9612 196.329 40.7633C197.117 41.5654 198.079 41.9663 199.215 41.9663C200.35 41.9663 201.3 41.5654 202.065 40.7633C202.83 39.9612 203.212 38.7925 203.212 37.257C203.212 35.7216 202.83 34.5529 202.065 33.7508C201.3 32.9258 200.35 32.5133 199.215 32.5133Z" fill="#FFFAF3"/>
<path d="M224.649 27.4602C226.874 27.4602 228.637 28.1937 229.934 29.6603C231.256 31.1268 231.916 33.1437 231.916 35.7102V46.8478H225.971V36.3978C225.971 35.1145 225.624 34.1176 224.928 33.407C224.255 32.6738 223.353 32.3071 222.216 32.3071C221.012 32.3071 220.05 32.6853 219.331 33.4415C218.636 34.1978 218.288 35.275 218.288 36.6727V46.8478H212.343V27.6666H218.288V31.1727C218.844 30.0269 219.667 29.1218 220.757 28.4571C221.868 27.7926 223.167 27.4602 224.649 27.4602Z" fill="#FFFAF3"/>
<path d="M243.204 27.426C244.689 27.426 245.963 27.7584 247.029 28.4229C248.094 29.0874 248.883 29.9927 249.393 31.1385V27.6667H255.302V46.848H249.393V43.3761C248.883 44.5219 248.094 45.427 247.029 46.0917C245.963 46.7562 244.689 47.0886 243.204 47.0886C241.606 47.0886 240.168 46.699 238.894 45.9197C237.642 45.1176 236.647 43.9718 235.904 42.4823C235.185 40.9926 234.827 39.2509 234.827 37.2572C234.827 35.2406 235.185 33.4989 235.904 32.0323C236.647 30.5426 237.642 29.4084 238.894 28.629C240.168 27.827 241.606 27.426 243.204 27.426ZM245.117 32.5821C243.841 32.5821 242.81 32.9946 242.024 33.8199C241.258 34.6449 240.877 35.7906 240.877 37.2572C240.877 38.724 241.258 39.8698 242.024 40.6948C242.81 41.5198 243.841 41.9323 245.117 41.9323C246.367 41.9323 247.388 41.5084 248.177 40.6605C248.986 39.8125 249.393 38.6781 249.393 37.2572C249.393 35.8136 248.986 34.6791 248.177 33.8541C247.388 33.0062 246.367 32.5821 245.117 32.5821Z" fill="#FFFAF3"/>
<path d="M265.338 21.4102V46.8477H259.393V21.4102H265.338Z" fill="#FFFAF3"/>
<path d="M125.137 62.0417C127.616 62.0417 129.667 62.6949 131.29 64.0012C132.912 65.2845 133.92 67.0376 134.314 69.2606H130.108C129.876 68.0689 129.308 67.1409 128.404 66.4762C127.524 65.7887 126.411 65.445 125.067 65.445C123.537 65.445 122.263 65.9835 121.243 67.0605C120.224 68.1148 119.714 69.6731 119.714 71.7356C119.714 73.7981 120.224 75.3679 121.243 76.4449C122.263 77.5221 123.537 78.0606 125.067 78.0606C126.411 78.0606 127.524 77.7169 128.404 77.0293C129.308 76.3418 129.876 75.4022 130.108 74.2106H134.314C133.92 76.4335 132.912 78.1982 131.29 79.5043C129.667 80.8105 127.616 81.4637 125.137 81.4637C123.283 81.4637 121.637 81.0741 120.2 80.295C118.787 79.5158 117.674 78.393 116.863 76.9262C116.052 75.4596 115.646 73.7293 115.646 71.7356C115.646 69.7648 116.052 68.046 116.863 66.5792C117.674 65.1127 118.787 63.9898 120.2 63.2105C121.637 62.4313 123.283 62.0417 125.137 62.0417Z" fill="#FFFAF3"/>
<path d="M145.824 62.0417C147.563 62.0417 149.046 62.4658 150.274 63.3137C151.502 64.1617 152.371 65.2845 152.881 66.6825V62.2824H156.844V81.223H152.881V76.8231C152.371 78.2209 151.502 79.344 150.274 80.1919C149.046 81.0398 147.563 81.4637 145.824 81.4637C144.156 81.4637 142.661 81.0741 141.34 80.295C140.042 79.5158 139.023 78.393 138.281 76.9262C137.539 75.4596 137.169 73.7293 137.169 71.7356C137.169 69.7648 137.539 68.046 138.281 66.5792C139.023 65.1127 140.042 63.9898 141.34 63.2105C142.661 62.4313 144.156 62.0417 145.824 62.0417ZM147.041 65.4793C145.28 65.4793 143.866 66.0407 142.8 67.1636C141.757 68.2637 141.236 69.7877 141.236 71.7356C141.236 73.6834 141.757 75.219 142.8 76.3418C143.866 77.4418 145.28 77.9918 147.041 77.9918C148.154 77.9918 149.15 77.7398 150.031 77.2356C150.911 76.7085 151.607 75.9752 152.116 75.0356C152.626 74.0959 152.881 72.996 152.881 71.7356C152.881 70.4981 152.626 69.4095 152.116 68.4699C151.607 67.5075 150.911 66.774 150.031 66.27C149.15 65.7429 148.154 65.4793 147.041 65.4793Z" fill="#FFFAF3"/>
<path d="M167.892 62.0417C170.14 62.0417 171.936 62.6147 173.28 63.7605C174.648 64.8834 175.482 66.396 175.783 68.298H172.029C171.866 67.2669 171.415 66.4419 170.673 65.823C169.955 65.1814 168.993 64.8607 167.788 64.8607C166.791 64.8607 166.015 65.1011 165.459 65.5824C164.926 66.0407 164.659 66.6709 164.659 67.473C164.659 68.0689 164.856 68.5502 165.25 68.9169C165.644 69.2835 166.131 69.57 166.71 69.7761C167.313 69.9825 168.158 70.2116 169.248 70.4638C170.685 70.7846 171.843 71.1169 172.724 71.4606C173.628 71.8044 174.393 72.3544 175.018 73.1106C175.667 73.8439 175.992 74.8523 175.992 76.1355C175.992 77.7169 175.378 79.0003 174.149 79.9855C172.944 80.971 171.31 81.4637 169.248 81.4637C166.861 81.4637 164.926 80.9136 163.442 79.8137C161.982 78.7138 161.102 77.1782 160.8 75.2074H164.659C164.775 76.2388 165.238 77.0751 166.05 77.7169C166.861 78.3585 167.927 78.6793 169.248 78.6793C170.198 78.6793 170.94 78.4386 171.473 77.9575C172.029 77.4533 172.307 76.8231 172.307 76.0669C172.307 75.4022 172.098 74.8751 171.681 74.4855C171.264 74.0959 170.743 73.7981 170.117 73.5919C169.491 73.3626 168.634 73.1336 167.544 72.9043C166.154 72.5835 165.018 72.2627 164.138 71.9419C163.28 71.6209 162.539 71.1054 161.913 70.395C161.31 69.6615 161.009 68.6762 161.009 67.4387C161.009 65.8346 161.611 64.5397 162.817 63.5544C164.045 62.546 165.737 62.0417 167.892 62.0417Z" fill="#FFFAF3"/>
<path d="M179.409 56.7819C179.409 56.1174 179.641 55.5673 180.105 55.1319C180.568 54.6965 181.182 54.4788 181.947 54.4788C182.712 54.4788 183.326 54.6965 183.789 55.1319C184.276 55.5673 184.519 56.1174 184.519 56.7819C184.519 57.4466 184.276 57.9851 183.789 58.3976C183.326 58.8101 182.712 59.0165 181.947 59.0165C181.182 59.0165 180.568 58.8101 180.105 58.3976C179.641 57.9851 179.409 57.4466 179.409 56.7819ZM183.928 62.2819V81.2226H179.966V62.2819H183.928Z" fill="#FFFAF3"/>
<path d="M199.432 61.9729C201.657 61.9729 203.441 62.6835 204.785 64.1042C206.129 65.5251 206.801 67.5533 206.801 70.1886V81.223H202.839V70.6011C202.839 68.9052 202.398 67.5989 201.517 66.6824C200.637 65.7428 199.432 65.2731 197.902 65.2731C196.326 65.2731 195.063 65.7771 194.113 66.7855C193.163 67.771 192.688 69.2262 192.688 71.1512V81.223H188.725V62.2823H192.688V66.4418C193.198 65.0209 194.055 63.921 195.26 63.1418C196.465 62.3627 197.856 61.9729 199.432 61.9729Z" fill="#FFFAF3"/>
<path d="M220.196 62.0417C222.049 62.0417 223.717 62.4313 225.202 63.2105C226.684 63.9898 227.844 65.1127 228.677 66.5792C229.512 68.046 229.929 69.7648 229.929 71.7356C229.929 73.7293 229.512 75.4596 228.677 76.9262C227.844 78.393 226.684 79.5158 225.202 80.295C223.717 81.0741 222.049 81.4637 220.196 81.4637C218.342 81.4637 216.672 81.0741 215.19 80.295C213.731 79.5158 212.571 78.393 211.713 76.9262C210.88 75.4367 210.462 73.7063 210.462 71.7356C210.462 69.7648 210.88 68.046 211.713 66.5792C212.571 65.1127 213.731 63.9898 215.19 63.2105C216.672 62.4313 218.342 62.0417 220.196 62.0417ZM220.196 65.445C219.175 65.445 218.237 65.6741 217.381 66.1324C216.523 66.5908 215.827 67.3012 215.293 68.2637C214.785 69.2034 214.53 70.3605 214.53 71.7356C214.53 73.1336 214.785 74.3023 215.293 75.2419C215.827 76.1813 216.523 76.8803 217.381 77.3387C218.237 77.797 219.175 78.0261 220.196 78.0261C221.214 78.0261 222.155 77.797 223.011 77.3387C223.869 76.8803 224.552 76.1813 225.062 75.2419C225.596 74.3023 225.862 73.1336 225.862 71.7356C225.862 70.3605 225.596 69.2034 225.062 68.2637C224.552 67.3012 223.869 66.5908 223.011 66.1324C222.155 65.6741 221.214 65.445 220.196 65.445Z" fill="#FFFAF3"/>
<path fill-rule="evenodd" clip-rule="evenodd" d="M54.4947 12.2213L80.0599 26.7715C83.9434 29.0018 86.4244 33.2498 86.4244 37.8168V66.7045C86.4244 71.2714 83.9434 75.5195 79.9522 77.7498L54.4947 92.3C52.4451 93.4683 50.2878 93.9992 48.0225 93.9992C45.7572 93.9992 43.4919 93.4683 41.5501 92.3L16.0927 77.8561C12.1015 75.5195 9.62048 71.3777 9.62048 66.8107V37.8168C9.62048 33.2498 12.1015 29.0018 16.0927 26.7715L41.5501 12.2213C45.5415 9.99101 50.5035 9.99101 54.4947 12.2213ZM56.2263 71.8966H66.0368V31.7871H56.2263V56.6356L39.8179 31.7871H30.0073V71.8966H39.8179V47.275L56.2263 71.8966Z" fill="#FEC882"/>
</svg>
