<?xml version="1.0" encoding="utf-8"?><svg viewBox="0 0 1440 367" xmlns="http://www.w3.org/2000/svg" xmlns:xlink="http://www.w3.org/1999/xlink"><style>:root>svg{display:none}:root>svg:target{display:block}</style><svg preserveAspectRatio="none" viewBox="0 0 1118 367" id="air_1" xmlns="http://www.w3.org/2000/svg"><path d="M517.033 191.5C431.361 132.129 267 36 .5-11l343.289-50c71.455 6.833 195.25 57.589 268.966 161C745.553 286.292 1008.45 307.167 1179 340.5V367c-197.736-26.5-477.263-47.5-661.967-175.5z"/></svg><svg preserveAspectRatio="none" viewBox="0 0 1440 261" id="air_2" xmlns="http://www.w3.org/2000/svg"><path d="M180 1.562C47.46-9.78-21.81 43.49-82.496 69.135H-95v191.428c14.171-18.232 74.723-60.965 203.562-86.052 161.05-31.357 255.47 74.632 522.161 74.632 243.574 0 425.277-131.581 540.777-159.08 142.59-33.95 228.96-16.304 359.5 16.512L1537 93c-294.09-90.062-319.99-79.136-599 13.575C608.5 216.062 455.585 25.147 180 1.562z"/></svg><svg preserveAspectRatio="none" viewBox="0 0 1440 187" id="air_3" xmlns="http://www.w3.org/2000/svg"><path d="M1287.1.315c-2.25.18-9.72.717-16.64 1.254-26.18 2.06-61.62 7.614-91.12 14.421-36.96 8.51-59.54 17.02-139.59 52.311-66.918 29.47-98.488 42.458-136.804 56.252-77.082 27.768-141.842 42.637-216.675 49.624-20.867 1.971-91.743 2.239-115.578.448-68.987-5.195-125.381-15.048-194.728-34.217-8.635-2.329-31.84-8.957-51.538-14.69-56.754-16.392-85.446-23.11-116.207-27.14-17.629-2.24-63.321-2.24-79.51 0-36.158 5.105-91.833 19.078-123.583 31.081L0 131.54v57.238h1440v-87.693c0-82.766-.09-87.782-1.53-88.23-7.64-2.329-49.83-8.688-72.22-10.928C1352.39.584 1297.62-.58 1287.1.315z"/></svg><svg preserveAspectRatio="none" viewBox="0 0 780 100" id="ellepse" xmlns="http://www.w3.org/2000/svg"><ellipse cx="-660" rx="1440" ry="100"/></svg><svg viewBox="0 0 114 40" id="netent" xmlns="http://www.w3.org/2000/svg"><path d="M59.645 0h-1.162v40h1.162v-7.696h14.667v-4.66H63.027v-5.367h9.647v-4.695h-9.647v-5.19h11.285V7.695H59.645V0zM13.992 22.786l-4.168-6.704L4.48 7.78l-.053-.084H0v24.608h4.914V17.179l3.665 5.893 5.894 9.232h4.464V7.696h-4.945v15.09zm7.709 9.518h16.23v-4.66H26.646v-5.367h9.647v-4.695h-9.647v-5.19H37.93V7.695H21.7v24.608zm18.221-19.878h5.674v19.878h4.945V12.426h5.638v-4.73H39.922v4.73zm50.854 10.4l-4.168-6.7-5.342-8.302-.053-.088h-4.429v24.607h4.91V17.218l3.665 5.893 5.898 9.232h4.464V7.736h-4.945v15.09zm6.967-15.09v4.73h5.674v19.877h4.945V12.466H114v-4.73H97.743z"/></svg></svg>