<svg width="1440" height="187" preserveAspectRatio="none" viewBox="0 0 1440 187" fill="none" xmlns="http://www.w3.org/2000/svg">
<path d="M1287.1 0.315017C1284.85 0.494164 1277.38 1.0316 1270.46 1.56905C1244.28 3.62924 1208.84 9.18279 1179.34 15.9904C1142.38 24.4999 1119.8 33.0093 1039.75 68.3013C972.832 97.7709 941.262 110.759 902.946 124.553C825.864 152.321 761.104 167.19 686.271 174.177C665.404 176.148 594.528 176.416 570.693 174.625C501.706 169.43 445.312 159.577 375.965 140.408C367.33 138.079 344.125 131.451 324.427 125.718C267.673 109.326 238.981 102.608 208.22 98.5771C190.591 96.3378 144.899 96.3378 128.71 98.5771C92.5522 103.683 36.877 117.656 5.1268 129.659L0 131.54V160.204V188.778H720H1440V101.085C1440 18.3193 1439.91 13.3032 1438.47 12.8553C1430.83 10.5264 1388.64 4.16668 1366.25 1.92734C1352.39 0.583737 1297.62 -0.580718 1287.1 0.315017Z" fill="white"/>
</svg>
