<svg width="114" height="40" viewBox="0 0 114 40" fill="none" xmlns="http://www.w3.org/2000/svg">
<path d="M59.6447 0H58.4835V40H59.6447V32.3036H74.3119V27.6437H63.0267V22.2773H72.6739V17.5823H63.0267V12.3914H74.3119V7.69636H59.6447V0ZM13.9917 22.7863L9.82378 16.0816L4.48141 7.77973L4.42843 7.69636H0V32.3036H4.9141V17.1786L8.5787 23.0715L14.473 32.3036H18.9367V7.69636H13.9917V22.7863ZM21.7006 32.3036H37.9308V27.6437H26.6456V22.2773H36.2928V17.5823H26.6456V12.3914H37.9308V7.69636H21.7006V32.3036ZM39.9221 12.4265H45.5956V32.3036H50.5406V12.4265H56.1788V7.69636H39.9221V12.4265ZM90.7761 22.8258L86.6082 16.1255L81.2658 7.82361L81.2129 7.73585H76.7844V32.3431H81.6941V17.2181L85.3587 23.111L91.2574 32.3431H95.7211V7.73585H90.7761V22.8258ZM97.7433 7.73585V12.466H103.417V32.3431H108.362V12.466H114V7.73585H97.7433Z" fill="#1D1D1D"/>
</svg>
