<?xml version="1.0" standalone="no"?>
<!DOCTYPE svg PUBLIC "-//W3C//DTD SVG 20010904//EN"
 "http://www.w3.org/TR/2001/REC-SVG-20010904/DTD/svg10.dtd">
<svg version="1.0" xmlns="http://www.w3.org/2000/svg"
 width="726.000000pt" height="726.000000pt" viewBox="0 0 726.000000 726.000000"
 preserveAspectRatio="xMidYMid meet">
<metadata>
Created by potrace 1.14, written by Peter Selinger 2001-2017
</metadata>
<g transform="translate(0.000000,726.000000) scale(0.100000,-0.100000)"
fill="#000000" stroke="none">
<path d="M3396 7079 c-1045 -67 -2011 -608 -2612 -1465 -371 -529 -594 -1177
-621 -1802 -5 -128 -4 -144 12 -162 26 -29 69 -26 94 6 17 22 21 41 21 99 0
165 42 461 96 678 118 468 326 889 632 1277 99 126 391 416 522 520 847 672
1957 892 2998 594 402 -115 781 -309 1132 -580 136 -105 425 -390 532 -524
445 -560 697 -1220 735 -1928 7 -139 17 -162 72 -162 62 0 71 48 51 285 -86
1011 -609 1931 -1440 2529 -290 209 -681 399 -1025 499 -266 77 -507 119 -785
137 -182 11 -225 11 -414 -1z"/>
<path d="M4786 6479 c-23 -33 -20 -66 15 -188 68 -237 91 -295 186 -463 53
-92 99 -165 104 -163 4 3 33 6 64 6 30 1 55 4 55 7 0 4 -31 104 -70 223 l-70
217 -116 173 c-64 96 -124 182 -134 192 -17 18 -18 18 -34 -4z m257 -396 c-8
-19 -8 -19 -137 155 -75 101 -106 151 -106 171 0 15 3 31 7 34 10 11 242 -344
236 -360z"/>
<path d="M4825 5745 c-69 -12 -115 -24 -405 -103 -214 -59 -205 -58 -310 -17
-51 19 -110 35 -131 35 -80 0 -284 -99 -437 -213 -54 -39 -82 -84 -82 -131 0
-27 -10 -25 217 -46 112 -10 112 -10 150 16 21 14 137 75 258 135 225 110 448
203 578 239 81 23 196 35 213 23 7 -4 33 -60 59 -123 25 -63 70 -161 100 -217
44 -85 51 -104 39 -114 -11 -9 -22 -6 -49 15 l-35 27 -93 -55 c-106 -62 -345
-183 -428 -215 l-56 -22 -74 30 c-74 29 -77 33 -64 78 6 18 2 25 -16 33 -39
16 -1436 210 -1518 210 -58 0 -157 -39 -202 -79 l-44 -40 86 -86 85 -86 66 30
c66 29 66 29 72 8 3 -11 0 -27 -6 -34 -6 -7 -79 -49 -163 -93 -84 -44 -157
-86 -163 -93 -9 -10 -43 -137 -37 -137 1 0 81 38 179 85 97 47 180 85 184 85
5 0 18 -11 31 -23 25 -27 23 -29 -46 -67 -39 -22 -56 -51 -35 -63 4 -3 88 33
186 79 99 46 182 82 185 79 15 -16 -33 -48 -205 -137 -225 -116 -461 -226
-504 -234 -45 -9 -149 46 -302 160 -70 52 -140 102 -157 110 -57 30 -118 17
-227 -48 -63 -37 -78 -54 -65 -75 6 -9 28 -2 84 25 42 21 80 35 83 31 12 -12
-11 -29 -119 -87 -94 -51 -103 -58 -111 -93 -15 -60 0 -64 84 -22 l73 37 41
-39 c22 -22 97 -92 165 -157 110 -104 127 -117 150 -111 45 11 59 -8 -164 223
-77 80 -79 84 -60 98 29 22 62 12 145 -45 86 -59 161 -90 245 -100 l60 -7 -65
-34 c-53 -29 -66 -40 -68 -62 -2 -18 1 -28 10 -28 7 0 193 74 412 165 220 91
406 165 414 165 8 0 36 -18 62 -40 l47 -40 54 16 c143 41 609 221 775 299 114
53 129 56 229 47 l80 -7 -205 -79 c-548 -210 -1122 -409 -1450 -501 -196 -56
-427 -105 -492 -105 -25 0 -67 -9 -93 -20 l-47 -20 25 -33 c21 -27 31 -32 64
-30 33 1 41 -3 55 -28 20 -34 36 -36 114 -9 65 23 481 154 1079 340 567 177
987 317 1175 395 209 85 486 220 570 277 139 94 143 144 31 399 -40 91 -81
180 -91 197 -38 62 -89 77 -195 57z m-720 -165 c36 -16 65 -34 65 -39 0 -6
-44 -33 -97 -60 -70 -36 -99 -47 -105 -38 -13 21 -9 26 43 52 28 14 49 31 46
38 -2 6 -33 23 -70 37 -82 31 -87 37 -46 48 40 10 74 2 164 -38z m-186 -32
c28 -6 51 -14 51 -17 -1 -3 -59 -34 -129 -68 -106 -52 -137 -63 -177 -62 -27
0 -57 4 -68 8 -16 6 -14 10 15 33 55 41 150 91 198 104 59 16 51 16 110 2z
m-678 -323 c217 -30 521 -72 677 -93 155 -22 286 -42 289 -46 19 -19 -50 -77
-93 -78 -40 -1 -1297 252 -1308 263 -17 15 28 11 435 -46z"/>
<path d="M5100 5635 c0 -20 84 -200 98 -209 14 -8 90 78 125 141 40 74 28 83
-114 83 -91 0 -109 -3 -109 -15z m204 -14 c5 -8 -142 -78 -147 -70 -7 10 -27
61 -27 69 0 12 167 13 174 1z"/>
<path d="M4681 5520 c-14 -49 -29 -90 -33 -90 -4 0 -8 3 -8 8 0 4 -12 20 -26
35 -19 23 -30 28 -49 23 -14 -4 -25 -10 -25 -15 0 -5 20 -34 44 -66 l45 -57
-20 -52 c-11 -28 -34 -75 -50 -103 -16 -29 -27 -53 -24 -53 3 0 28 11 54 25
41 20 52 32 66 70 10 25 21 45 24 45 4 0 17 -14 30 -30 19 -27 25 -29 44 -19
12 7 24 13 26 15 2 1 -17 29 -42 61 l-46 58 10 53 c6 28 9 81 7 117 l-3 66
-24 -91z"/>
<path d="M5250 5436 l-46 -43 56 -184 c32 -102 63 -196 69 -209 7 -14 65 -105
129 -202 76 -115 123 -178 134 -178 21 0 38 29 38 65 0 33 -68 273 -107 375
-26 71 -212 419 -223 419 -3 1 -25 -19 -50 -43z m200 -508 c124 -167 150 -209
150 -239 0 -16 -4 -29 -9 -29 -4 0 -58 76 -120 168 -99 150 -127 203 -103 202
4 -1 41 -46 82 -102z"/>
<path d="M4207 5347 c-136 -55 -245 -102 -242 -105 5 -5 498 -103 500 -99 23
35 95 178 95 187 0 12 -91 120 -100 119 -3 0 -116 -46 -253 -102z"/>
<path d="M1148 4030 c-178 -22 -341 -117 -425 -248 -35 -54 -57 -126 -149
-494 l-47 -188 -176 0 c-149 0 -182 -3 -216 -19 -74 -34 -125 -103 -125 -171
l0 -30 230 0 c127 0 230 -3 230 -7 0 -5 -38 -156 -84 -336 -56 -222 -79 -330
-72 -333 7 -3 81 -3 166 -2 l154 3 85 338 84 337 149 0 c81 0 148 -3 148 -6 0
-4 -23 -97 -52 -208 -29 -110 -54 -232 -56 -269 -3 -61 -1 -73 23 -109 40 -61
96 -81 224 -82 l105 -1 17 55 c31 104 31 103 -1 122 -21 12 -30 25 -30 43 0
14 70 304 155 645 156 624 167 681 145 760 -39 141 -251 229 -482 200z m110
-174 c35 -18 57 -58 56 -105 0 -20 -35 -174 -78 -343 l-79 -308 -149 0 c-81 0
-148 3 -148 6 0 22 155 608 170 641 43 98 150 149 228 109z"/>
<path d="M3169 4026 c-89 -32 -139 -100 -139 -189 0 -51 4 -61 33 -93 54 -59
136 -64 216 -11 44 29 91 113 91 162 0 38 -29 94 -61 116 -34 24 -97 31 -140
15z"/>
<path d="M4860 3755 c0 -2 -16 -66 -35 -142 -19 -76 -35 -139 -35 -140 0 -1
-37 -3 -82 -5 l-81 -3 -19 -65 c-28 -102 -30 -100 57 -100 59 0 75 -3 75 -15
0 -8 -45 -192 -100 -409 -73 -287 -100 -411 -100 -456 0 -141 80 -205 268
-217 74 -4 101 -3 107 7 12 20 44 153 39 162 -3 4 -13 8 -23 8 -21 0 -46 26
-55 57 -6 17 102 472 195 825 l10 37 71 3 72 3 18 70 c9 39 18 76 18 83 0 8
-21 12 -71 12 -64 0 -70 2 -65 18 14 42 66 248 66 260 0 9 -40 12 -165 12 -91
0 -165 -2 -165 -5z"/>
<path d="M1817 3463 c-3 -5 -15 -53 -26 -108 -12 -55 -80 -332 -152 -617 -71
-285 -129 -522 -129 -528 0 -17 368 -13 458 6 226 45 472 245 568 460 15 33
59 185 98 339 l71 280 93 3 c59 2 92 -1 92 -8 0 -6 -45 -188 -100 -406 -66
-261 -100 -414 -100 -450 0 -139 110 -222 302 -227 l71 -2 18 70 c24 90 23 94
-4 104 -29 11 -44 29 -52 62 -4 17 34 187 115 510 66 266 123 492 126 502 5
16 -19 17 -420 17 -282 0 -427 -3 -431 -10 -4 -6 -51 -189 -106 -408 -115
-457 -122 -483 -160 -538 -48 -70 -143 -129 -225 -141 -45 -6 -46 -6 -39 18
23 69 271 1070 266 1074 -8 8 -329 6 -334 -2z"/>
<path d="M3845 3463 c-164 -22 -362 -155 -415 -279 -36 -83 -172 -643 -173
-709 -1 -138 110 -241 288 -266 134 -18 256 4 343 62 l43 29 40 -33 c50 -43
95 -56 218 -64 l99 -6 12 44 c6 24 15 60 21 79 12 46 11 50 -5 50 -23 0 -66
40 -66 62 0 11 56 247 125 522 69 276 125 505 125 509 0 7 -601 7 -655 0z
m275 -178 c0 -7 -43 -183 -95 -390 -60 -241 -102 -386 -115 -405 -11 -16 -39
-44 -61 -63 -98 -85 -247 -69 -264 27 -7 35 162 721 190 775 30 60 64 71 213
71 109 0 132 -3 132 -15z"/>
<path d="M5715 3464 c-156 -24 -315 -117 -388 -227 -40 -61 -53 -102 -142
-457 -77 -305 -81 -355 -32 -429 37 -55 109 -106 182 -127 80 -23 257 -24 342
-1 160 42 307 157 358 280 27 66 165 636 165 684 0 82 -17 124 -73 178 -71 69
-147 96 -281 100 -56 2 -114 1 -131 -1z m98 -175 c31 -14 57 -59 57 -101 0
-18 -36 -180 -81 -360 -58 -235 -88 -338 -106 -366 -30 -47 -96 -92 -134 -92
-57 0 -106 70 -96 138 9 59 145 602 163 651 37 99 130 161 197 130z"/>
<path d="M6481 3433 c-6 -21 -77 -305 -160 -631 -105 -419 -146 -595 -137
-598 6 -2 81 -3 166 -2 l155 3 91 365 c105 416 126 469 231 580 57 61 176 140
189 127 3 -3 -2 -32 -10 -65 -25 -96 -29 -92 72 -92 l89 0 41 165 c23 91 42
170 42 176 0 9 -30 10 -112 6 -122 -6 -212 -29 -287 -72 -24 -14 -46 -24 -48
-21 -3 2 0 21 6 43 6 21 11 41 11 46 0 4 -74 7 -165 7 l-164 0 -10 -37z"/>
<path d="M635 1975 c-14 -13 -25 -30 -25 -38 0 -20 118 -212 203 -332 209
-293 509 -593 803 -803 460 -328 992 -536 1584 -619 177 -25 672 -25 850 0
651 90 1203 321 1710 713 132 102 455 419 554 544 154 195 306 428 306 470 0
35 -28 60 -68 60 -26 0 -36 -7 -59 -43 -183 -290 -318 -462 -513 -657 -653
-655 -1531 -1005 -2450 -977 -494 15 -933 124 -1375 342 -567 280 -1025 696
-1361 1238 -84 135 -110 152 -159 102z"/>
<path d="M2577 1770 c-13 -11 -28 -31 -31 -45 -9 -34 18 -89 50 -104 36 -16
2032 -16 2068 0 32 15 59 70 50 104 -3 14 -18 34 -31 45 -25 20 -44 20 -1053
20 -1009 0 -1028 0 -1053 -20z"/>
<path d="M2964 1430 c-56 -22 -72 -103 -29 -145 l24 -25 671 0 671 0 24 25
c33 32 33 84 1 122 l-24 28 -659 2 c-362 1 -668 -2 -679 -7z"/>
</g>
</svg>
